Simulation
nRows=39
nColumns=15
endheader
time  TH_x TH_y TH_z SC_y  SC_z  SC_x  AC_y  AC_z  AC_x  GH_y  GH_z  GH_yy  EL_x  PS_y
2.3499999999999996  0.000000  0.000000  0.000000  -60.691762120087304  14.56947511666513  23.896333334202346  55.01100343180527  26.0594721146895  30.832157269831804  78.27321677303648  21.84182730434728  -89.06340774450189  113.4335433404276  120.000000
2.397  0.000000  0.000000  0.000000  -61.177172713865374  14.69467644859987  24.375593040349493  55.23039617934357  26.227206389781163  31.5503743230748  75.81601071716774  21.695217128613187  -87.86457226417448  113.14921100095343  120.000000
2.4439999999999995  0.000000  0.000000  0.000000  -61.62985396461975  14.796021509417452  24.799059254905195  55.43675227785146  26.401191158931734  32.21657607309565  73.46665079785639  21.582614393374758  -86.70375773930438  112.8760491181609  120.000000
2.4909999999999997  0.000000  0.000000  0.000000  -62.04237759381979  14.875604073797838  25.165987027457483  55.62563228369868  26.572656522080262  32.81791868102083  71.30201083983484  21.5043518672556  -85.64309503481694  112.62419889897856  120.000000
2.538  0.000000  0.000000  0.000000  -62.40973415397627  14.936104930503731  25.477624884358153  55.79511987216251  26.735203227974456  33.347578292290365  69.37291226843499  21.45746858619504  -84.72152459800346  112.39932560886997  120.000000
2.5849999999999995  0.000000  0.000000  0.000000  -62.73049933019975  14.980587286279112  25.737748259241126  55.94411032734334  26.885028884370648  33.80460704915538  67.69685435214309  21.436745719749094  -83.95004912022755  112.20259047482094  120.000000
2.6319999999999997  0.000000  0.000000  0.000000  -63.007246799975874  15.01180666266244  25.951760050868796  56.07246130029389  27.020121000495084  34.19179855899727  66.25786491031421  21.435164787623165  -83.31316362846059  112.03150548927529  120.000000
2.679  0.000000  0.000000  0.000000  -63.24475602564249  15.032092655335168  26.12582360029146  56.18208824179271  27.13975460591406  34.51418765574253  65.0199475297199  21.445449422096463  -82.78057623825413  111.88192301181094  120.000000
2.7259999999999995  0.000000  0.000000  0.000000  -63.44812812996027  15.043261118222583  26.266455831203874  56.27582852874582  27.24419925456759  34.778255542009354  63.94280212389867  21.4611289876559  -82.31981635081922  111.74967370679485  120.000000
2.7729999999999997  0.000000  0.000000  0.000000  -63.62151711226856  15.047208641811027  26.379646756054886  56.35595160045455  27.33392747992225  34.991026630264635  62.99442427977999  21.47723027733266  -81.90577215582545  111.63198722167147  120.000000
2.8199999999999994  0.000000  0.000000  0.000000  -63.767410156401134  15.04600883322677  26.470017560909618  56.42364924424994  27.40919990802968  35.158874209689706  62.1591201892321  21.490475600182616  -81.52558901688042  111.52824068972183  120.000000
2.8669999999999995  0.000000  0.000000  0.000000  -63.885841579591016  15.041950143148744  26.53996429098576  56.478661599346594  27.469770779117184  35.28653425271478  61.43929386379446  21.498959703050797  -81.1777959392093  111.43955574054189  120.000000
2.9139999999999997  0.000000  0.000000  0.000000  -63.9739021360272  15.036935658373345  26.58936035158993  56.51929461079413  27.514847320858156  35.375892075004735  60.85331093519329  21.501140332034463  -80.86762385000321  111.36806771579309  120.000000
2.9609999999999994  0.000000  0.000000  0.000000  -64.02604734742899  15.032001010742784  26.615122822544617  56.54257529400828  27.542964249100315  35.424799203231785  60.4321601104217  21.49480180446439  -80.60114906060906  111.31653700100304  120.000000
3.0079999999999996  0.000000  0.000000  0.000000  -64.03464300553892  15.02733909893857  26.61089186776159  56.544352870797155  27.55190836320587  35.42631260448245  60.21568013662438  21.475896263342058  -80.37999802519647  111.28852318865393  120.000000
3.0549999999999997  0.000000  0.000000  0.000000  -63.990788252645075  15.022215507241166  26.566918755643165  56.51974041505097  27.538866562241076  35.368561348944084  60.24909074648984  21.438466830880607  -80.19901392571454  111.2883488581326  120.000000
3.1019999999999994  0.000000  0.000000  0.000000  -63.88478867410964  15.014775480882223  26.470849374572264  56.463352431192256  27.50075777098139  35.235823640305846  60.579207746723064  21.375385508095263  -80.04739524829401  111.32083493717847  120.000000
3.1489999999999996  0.000000  0.000000  0.000000  -63.70655742796998  15.001507624128063  26.308881742982855  56.37011354395491  27.434999838332857  35.00985882928315  61.25122731384375  21.28064420612165  -79.91418439353791  111.39036793786298  120.000000
3.1959999999999997  0.000000  0.000000  0.000000  -63.445888381252644  14.976871783040213  26.066960859962236  56.23592118006502  27.339919860144786  34.67180177687211  62.30446787785508  21.151710496916646  -79.7945281622986  111.49991753331075  120.000000
3.2429999999999994  0.000000  0.000000  0.000000  -63.09265286105589  14.933327633048327  25.73141835447543  56.05913802411271  27.21553494960746  34.20342065460088  63.76728852528414  20.992172068788076  -79.69552606266377  111.64925997469761  120.000000
3.2899999999999996  0.000000  0.000000  0.000000  -62.63806540140308  14.861594148266368  25.289400384087198  55.83953767787863  27.063233140167156  33.58875393628507  65.64778393458742  20.811909393381107  -79.63517263352207  111.83388198478596  120.000000
3.3369999999999993  0.000000  0.000000  0.000000  -62.075701296095104  14.751209179893399  24.729717003399628  55.577191308056925  26.886801693712314  32.81648662963029  67.92958194198029  20.626501072434177  -79.63840709456214  112.04594097446619  120.000000
3.3839999999999995  0.000000  0.000000  0.000000  -61.40037047377835  14.592679890197433  24.043936425631387  55.27372378958707  26.692466770448338  31.884063259883842  70.57695991198067  20.454985565392892  -79.7359862712313  112.27636196483661  120.000000
3.4309999999999996  0.000000  0.000000  0.000000  -60.60995291951712  14.37866933721333  23.226070242721303  54.930949401619515  26.488184388404836  30.798177887408254  73.52490555636511  20.31366367807248  -79.94867391397798  112.51562713295884  120.000000
3.4779999999999993  0.000000  0.000000  0.000000  -59.70741405965256  14.105260561270253  22.272450759816305  54.551487637087014  26.282593327988607  29.575335667246925  76.67704798592798  20.209934282136416  -80.27862368689306  112.75542686852675  120.000000
3.5249999999999995  0.000000  0.000000  0.000000  -58.702108840656365  13.774085110430216  21.1835801536967  54.13915777447722  26.084899075778765  28.245823600954452  79.92158619673438  20.14156467571605  -80.7158254984143  112.98887928297862  120.000000
3.5719999999999996  0.000000  0.000000  0.000000  -57.61201047258093  13.391958168028765  19.96651783632943  53.693237896694924  25.90675664236883  26.853784967033263  83.14414271309235  20.096763939409193  -81.24352362155909  113.21318679448456  120.000000
3.6189999999999993  0.000000  0.000000  0.000000  -56.46282405531667  12.968957742728879  18.634505065049797  53.210188334662945  25.763290599078303  25.455329335413943  86.24313209796941  20.05996188215576  -81.84519156425645  113.43017400802987  120.000000
3.6659999999999995  0.000000  0.000000  0.000000  -55.282470486365014  12.519932034022764  17.201663573304696  52.69789059605047  25.670697250473616  24.11335504667571  89.12323086816373  20.016797334088228  -82.49082325109595  113.6417449436559  120.000000
3.7129999999999996  0.000000  0.000000  0.000000  -54.10029173809866  12.062257538131824  15.674893671061977  52.191710002067985  25.638987871537022  22.88670602825645  91.65640098611756  19.953938924278464  -83.0995492480627  113.84359957344242  120.000000
3.7599999999999993  0.000000  0.000000  0.000000  -52.945237486369756  11.611608770377151  14.049243404145113  51.756275549226054  25.66481384159464  21.820208338751954  93.64123950663561  19.854213565324514  -83.5013929008161  114.01797762912086  120.000000
3.8069999999999995  0.000000  0.000000  0.000000  -51.8431031789215  11.176925087473393  12.314384766223137  51.466319451499956  25.732515541316353  20.942652538757986  94.79566137471166  19.70207847313316  -83.42328845164384  114.12533898131339  120.000000
3.8539999999999996  0.000000  0.000000  0.000000  -50.809961376744525  10.756818558871469  10.464867074210662  51.376604086609845  25.822593895419384  20.267695380143287  94.79721215833493  19.502674805373616  -82.52086885790825  114.09975454659957  120.000000
3.9009999999999994  0.000000  0.000000  0.000000  -49.84750322934773  10.33854058837153  8.510586023550701  51.499273482144034  25.9227920975003  19.79306414934458  93.35561504465358  19.30934208766778  -80.45262815739078  113.82137743468525  120.000000
3.9479999999999995  0.000000  0.000000  0.000000  -48.959040617477186  9.905612249231304  6.482818649366966  51.80273961689845  26.030089389184518  19.500025725083397  90.34191156574235  19.250910834721367  -77.02797100644975  113.11178286442465  120.000000
3.994999999999999  0.000000  0.000000  0.000000  -48.15394978749229  9.445707124656277  4.431432312395815  52.226319483020546  26.144989545885508  19.35257368506057  85.94422520263132  19.5122314720883  -72.38093107881949  111.7599072375786  120.000000
4.042  0.000000  0.000000  0.000000  -47.4311670267005  8.957378567513432  2.411992680262754  52.69891043994327  26.260170268032546  19.304875062019153  80.73702147936204  20.25972712984133  -67.05384301918228  109.58132990705678  120.000000
4.0889999999999995  0.000000  0.000000  0.000000  -46.77866346404599  8.446493576229797  0.47925129637718356  53.15604182341822  26.359474296753355  19.30907274058314  75.49079303783307  21.559075673685033  -61.80675286194582  106.52709133607414  120.000000
4.135999999999999  0.000000  0.000000  0.000000  -46.172871793743155  7.926275852755165  -1.3273273870853686  53.54463038498085  26.415741119818648  19.315454198187844  70.79664649558624  23.335347342492398  -57.24356216910521  102.70841079117858  120.000000
